<?xml version="1.0" encoding="UTF-8"?>
<svg width="28px" height="19px" viewBox="0 0 28 19" version="1.1" xmlns="http://www.w3.org/2000/svg" xmlns:xlink="http://www.w3.org/1999/xlink">
    <!-- Generator: Sketch 42 (36781) - http://www.bohemiancoding.com/sketch -->
    <title>video-camera</title>
    <desc>Created with Sketch.</desc>
    <defs></defs>
    <g id="Page-1" stroke="none" stroke-width="1" fill="none" fill-rule="evenodd">
        <g id="Desktop" transform="translate(-656.000000, -1234.000000)" fill="#000000">
            <g id="Sobre" transform="translate(0.000000, 809.000000)">
                <g id="video-camera" transform="translate(656.000000, 425.000000)">
                    <g>
                        <path d="M25.6666667,16.625 L19.8333333,14.25 L19.8333333,16.625 C19.8333333,17.9366763 18.7886644,19 17.5,19 L2.33333333,19 C1.04466892,19 0,17.9366763 0,16.625 L0,2.375 C0,1.06332372 1.04466892,0 2.33333333,0 L17.5,0 C18.7886644,0 19.8333333,1.06332372 19.8333333,2.375 L19.8333333,4.75 L25.6666667,2.375 C26.9553311,2.375 28,3.43832372 28,4.75 L28,14.25 C28,15.5616763 26.9553311,16.625 25.6666667,16.625 L25.6666667,16.625 Z M17.5,11.875 L17.5,2.375 L2.33333333,2.375 L2.33333333,16.625 L17.5,16.625 L17.5,11.875 L17.5,11.875 Z M25.6666667,4.75 L19.8333333,7.125 L19.8333333,11.875 L25.6666667,14.25 L25.6666667,4.75 L25.6666667,4.75 Z"></path>
                    </g>
                </g>
            </g>
        </g>
    </g>
</svg>