<?xml version="1.0" encoding="UTF-8" standalone="no"?>
<svg width="34px" height="25px" viewBox="0 0 34 25" version="1.1" xmlns="http://www.w3.org/2000/svg" xmlns:xlink="http://www.w3.org/1999/xlink">
    <!-- Generator: Sketch 42 (36781) - http://www.bohemiancoding.com/sketch -->
    <title>tamanho-fonte</title>
    <desc>Created with Sketch.</desc>
    <defs></defs>
    <g id="Page-1" stroke="none" stroke-width="1" fill="none" fill-rule="evenodd">
        <g id="tamanho-fonte" fill="#FFFFFF">
            <g id="Tamanho-de-fonte">
                <path d="M9.90135673,13.8888889 L15.7998596,13.8888889 L12.6557544,5.27916667 L9.90135673,13.8888889 Z M25.0526316,22.2222222 L26.4444444,22.2222222 L26.4444444,25 L16.7017544,25 L16.7017544,22.2222222 L17.4421988,22.2222222 C18.0810409,22.2222222 18.5305965,21.5930556 18.3232164,20.9902778 L17.1874971,18.0555556 L8.5137193,18.0555556 L7.37939181,20.9902778 C7.1720117,21.5930556 7.62156725,22.2222222 8.26040936,22.2222222 L9.74269006,22.2222222 L9.74269006,25 L0,25 L0,22.2222222 L0.598479532,22.2222222 C1.42521637,22.2222222 2.16148538,21.7013889 2.43567251,20.9222222 L10.1017778,0 L15.6008304,0 L23.2655439,20.9222222 C23.539731,21.7013889 24.2258947,22.2222222 25.0526316,22.2222222 L25.0526316,22.2222222 Z M33.4035088,23.6111111 L33.4035088,25 L27.8362573,25 L27.8362573,23.6111111 L28.9984211,23.6111111 C29.3575088,23.6111111 29.5621053,23.3638889 29.445193,23.025 L28.7882573,21.1208333 L25.681731,21.1208333 L24.8814386,18.9125 L28.0756491,18.9125 L26.18,13.2513889 L24.573848,18.0430556 L23.3504444,14.575 L24.6323041,11.1111111 L27.7249123,11.1111111 L31.9462807,22.9388889 C32.1021637,23.3763889 32.285883,23.6111111 32.7507485,23.6111111 L33.4035088,23.6111111 Z" id="Fill-1"></path>
            </g>
        </g>
    </g>
</svg>