<?xml version="1.0" encoding="UTF-8" standalone="no"?>
<svg width="22px" height="24px" viewBox="0 0 22 24" version="1.1" xmlns="http://www.w3.org/2000/svg" xmlns:xlink="http://www.w3.org/1999/xlink">
    <!-- Generator: Sketch 42 (36781) - http://www.bohemiancoding.com/sketch -->
    <title>cor</title>
    <desc>Created with Sketch.</desc>
    <defs></defs>
    <g id="Page-1" stroke="none" stroke-width="1" fill="none" fill-rule="evenodd">
        <g id="cor" fill="#FFFFFF">
            <g id="Page-1">
                <path d="M9.5,15 L6.808,15 L10.736,10.638 L9.245,9.305 L1.345,18.099 C0.067,19.521 1.173,20.36 0.195,22.151 C0.062,22.395 0,22.631 0,22.849 C0,23.511 0.54,24 1.14,24 C1.381,24 1.632,23.922 1.864,23.744 C3.597,22.411 4.507,23.561 5.817,22.097 L13.718,13.305 L12.227,11.972 L9.5,15 Z M17.716,8.831 C16.982,9.655 17.051,10.918 17.875,11.656 L16.542,13.147 L9.087,6.48 L10.421,4.99 C11.244,5.726 12.508,5.655 13.244,4.831 L16.746,1 C17.338,0.338 18.16,0 18.984,0 C20.65,0 22,1.358 22,2.996 C22,3.719 21.728,4.431 21.22,5.001 L17.716,8.831 Z" id="Fill-1"></path>
            </g>
        </g>
    </g>
</svg>