<?xml version="1.0" encoding="utf-8"?>
<!-- Generator: Adobe Illustrator 15.0.0, SVG Export Plug-In . SVG Version: 6.00 Build 0)  -->
<!DOCTYPE svg PUBLIC "-//W3C//DTD SVG 1.1//EN" "http://www.w3.org/Graphics/SVG/1.1/DTD/svg11.dtd">
<svg version="1.1" id="Layer_1" xmlns="http://www.w3.org/2000/svg" xmlns:xlink="http://www.w3.org/1999/xlink" x="0px" y="0px"
	 width="1552.305px" height="457.443px" viewBox="0 0 1552.305 457.443" enable-background="new 0 0 1552.305 457.443"
	 xml:space="preserve">
<linearGradient id="SVGID_1_" gradientUnits="userSpaceOnUse" x1="567.5527" y1="-131.4712" x2="356.5558" y2="145.2224" gradientTransform="matrix(1 0 0 -1 -156 212.4434)">
	<stop  offset="0.0307" style="stop-color:#4AACD4"/>
	<stop  offset="0.4294" style="stop-color:#5BB0D9"/>
	<stop  offset="0.5828" style="stop-color:#58A7CA"/>
	<stop  offset="1" style="stop-color:#1C456A"/>
</linearGradient>
<path fill="url(#SVGID_1_)" d="M500.663,4.961c0,0-6.328,15.396-24.828,15.396c-9.697,0-65.732,0-75.252,0
	c-64.519,0-76.127,54.734-76.127,54.734l-26.945,141.558c0,0,35.507,0,41.483,0c59.657,0,57.729,42.766,57.729,42.766l-1.712,23.516
	c0,0-2.347-23.516-42.76-23.516c-31.451,0-50.031,10.271-50.031,10.271s-12.827,7.485-17.114,23.942
	c-1.928,8.986-22.24,116.743-22.24,116.743s-6.237,24.957,16.152,34.759c16.078,7.062,45.437,9.298,45.437,9.298
	s-126.165,0-135.137,0c-67.797,0-73.802-51.745-71-65.877c1.699-10.9,7.675-34.398,9.167-40.582
	c17.563-67.148,162.321-87.263,162.321-87.263s-148.574,14.66-158.234,15.385C16.732,288.344,7.107,214.945,7.107,214.945h142.849
	l34.633-129.162c0,0,25.547-80.991,106.666-80.991C308.891,4.792,500.663,4.961,500.663,4.961z"/>
<polyline opacity="0.28" fill="#3E6EB5" enable-background="new    " points="301.118,122.136 279.355,128.077 278.896,100.772 
	301.118,122.136 "/>
<polyline opacity="0.28" fill="#487ABC" enable-background="new    " points="278.896,100.719 237.748,159.669 279.355,128.077 
	278.949,100.824 "/>
<polyline opacity="0.28" fill="#4071B7" enable-background="new    " points="278.854,100.772 238.273,121.399 237.822,159.572 
	278.949,100.719 "/>
<polyline opacity="0.28" fill="#4578BB" enable-background="new    " points="238.257,121.967 195.529,167.941 237.851,159.515 
	238.31,122.076 "/>
<polygon opacity="0.22" fill="#4572B7" enable-background="new    " points="195.619,167.999 182.209,126.851 227.92,89.607 "/>
<polygon opacity="0.13" fill="#3F6CB3" enable-background="new    " points="182.195,126.854 192.217,103.511 228.332,89.305 "/>
<polygon opacity="0.28" fill="#4676BA" enable-background="new    " points="297.985,144.279 279.355,128.077 301.118,122.136 "/>
<polygon opacity="0.53" fill="#4F7FC0" enable-background="new    " points="297.985,144.279 267.63,161.691 279.355,128.077 "/>
<polygon opacity="0.53" fill="#4173B8" enable-background="new    " points="279.355,128.077 237.992,159.478 267.63,161.691 "/>
<polygon opacity="0.53" fill="#4B7DBF" enable-background="new    " points="297.999,144.29 289.016,192.944 267.63,161.691 "/>
<polygon opacity="0.53" fill="#477BBD" enable-background="new    " points="289.016,192.944 260.855,194.573 267.63,161.691 "/>
<polygon opacity="0.53" fill="#4678BB" enable-background="new    " points="267.63,161.691 231.359,185.866 260.855,194.573 "/>
<polyline opacity="0.53" fill="#477BBD" enable-background="new    " points="237.793,159.565 231.359,185.866 267.63,161.691 
	237.954,159.478 "/>
<polygon opacity="0.53" fill="#4B7DBF" enable-background="new    " points="237.851,159.425 194.199,189.851 231.359,185.866 "/>
<polygon opacity="0.38" fill="#386DB4" enable-background="new    " points="237.909,159.478 195.479,167.941 194.199,189.939 "/>
<polygon opacity="0.53" fill="#447DBF" enable-background="new    " points="289.016,192.944 232.819,229.154 278.869,227.93 "/>
<polygon opacity="0.53" fill="#4A81C2" enable-background="new    " points="289.016,192.944 260.855,194.573 232.938,229.154 "/>
<polygon opacity="0.53" fill="#417DBF" enable-background="new    " points="260.855,194.573 233.101,229.111 231.359,185.866 "/>
<polygon opacity="0.53" fill="#3E77BB" enable-background="new    " points="231.359,185.866 185.972,229.966 233.129,229.111 "/>
<polygon opacity="0.53" fill="#477DBF" enable-background="new    " points="231.359,185.866 194.199,189.851 185.972,229.966 "/>
<polygon opacity="0.25" fill="#4478BB" enable-background="new    " points="158.437,183.207 156.643,189.91 194.199,189.851 
	195.58,167.884 "/>
<polygon opacity="0.3" fill="#5690CC" enable-background="new    " points="367.476,224.817 338.697,253.414 369.756,260.597 "/>
<polygon opacity="0.38" fill="#5A90CB" enable-background="new    " points="367.526,224.796 338.644,221.155 338.697,253.414 "/>
<polygon opacity="0.53" fill="#548DCA" enable-background="new    " points="338.644,221.155 308.977,240.647 297.599,216.574 "/>
<polygon opacity="0.53" fill="#558DCA" enable-background="new    " points="297.599,216.62 278.869,227.93 308.969,240.647 "/>
<polygon opacity="0.53" fill="#518ECB" enable-background="new    " points="278.869,227.93 265.611,259.735 308.962,240.656 "/>
<polygon opacity="0.5" fill="#4080C1" enable-background="new    " points="233.101,229.09 185.972,229.966 194.313,263.745 "/>
<polygon opacity="0.53" fill="#3F77BB" enable-background="new    " points="194.199,189.851 138.781,223.475 185.972,229.966 "/>
<polygon opacity="0.53" fill="#548ECA" enable-background="new    " points="338.644,221.155 308.969,240.642 338.697,253.414 "/>
<polygon opacity="0.53" fill="#4A98D3" enable-background="new    " points="278.439,326.842 237.216,347.157 237.676,385.827 "/>
<polygon opacity="0.49" fill="#4A97D1" enable-background="new    " points="278.439,326.842 229.255,316.194 237.262,347.202 "/>
<polygon opacity="0.48" fill="#5296D1" enable-background="new    " points="275.133,281.006 229.263,316.194 278.734,327.146 "/>
<polygon opacity="0.66" fill="#498ECC" enable-background="new    " points="275.038,281.093 226.606,296.97 229.255,316.194 "/>
<polygon opacity="0.53" fill="#437EC0" enable-background="new    " points="186.049,229.969 145.975,250.396 138.735,223.475 "/>
<path opacity="0.46" fill="#3D7BBE" enable-background="new    " d="M185.973,229.969l-39.998,20.427
	c0,0,48.441,13.785,48.338,13.35C192.778,257.228,185.973,229.969,185.973,229.969z"/>
<polygon opacity="0.53" fill="#3D79BC" enable-background="new    " points="138.757,223.475 111.35,255.074 145.975,250.396 "/>
<polygon opacity="0.5" fill="#4992CE" enable-background="new    " points="195.301,294.754 192.504,328.01 151.015,328.384 "/>
<polygon opacity="0.53" fill="#4993CF" enable-background="new    " points="195.301,294.754 226.606,296.97 192.504,328.01 "/>
<polygon opacity="0.53" fill="#569BD4" enable-background="new    " points="226.606,296.97 229.255,316.194 192.504,328.01 "/>
<polygon opacity="0.53" fill="#4092CF" enable-background="new    " points="151.015,328.384 151.96,350.759 192.504,328.01 "/>
<path opacity="0.53" fill="#3A8DCB" enable-background="new    " d="M131.962,337.438c-3.209,6.379-4.591,11.133-4.981,12.625
	l24.997,0.717l-0.963-22.396L131.962,337.438z"/>
<polygon opacity="0.53" fill="#569FD7" enable-background="new    " points="192.504,328.01 151.96,350.759 182.068,352.343 "/>
<path opacity="0.4" fill="#499BD5" enable-background="new    " d="M151.97,350.765c-0.133,1.064-0.059,38.992-0.059,38.992
	l30.157-37.414L151.97,350.765z"/>
<polygon opacity="0.44" fill="#3B97D2" enable-background="new    " points="182.02,352.054 151.911,389.757 195.869,393.812 "/>
<polygon opacity="0.53" fill="#4C96D1" enable-background="new    " points="192.504,328.01 182.061,352.372 229.255,316.194 "/>
<polygon opacity="0.53" fill="#50A0D8" enable-background="new    " points="229.255,316.194 195.859,393.808 182.082,352.356 "/>
<polygon opacity="0.53" fill="#509CD5" enable-background="new    " points="195.848,393.819 237.305,347.032 229.255,316.194 "/>
<polygon opacity="0.53" fill="#58A4DA" enable-background="new    " points="237.262,346.996 195.848,393.797 237.676,385.827 "/>
<polygon opacity="0.61" fill="#58A7DC" enable-background="new    " points="151.912,389.758 142.318,416.453 195.861,393.812 "/>
<polygon opacity="0.4" fill="#5AAADE" enable-background="new    " points="195.848,393.819 195.848,416.209 142.315,416.453 "/>
<polygon opacity="0.48" fill="#49A0D8" enable-background="new    " points="237.676,385.827 195.84,416.209 195.867,393.799 "/>
<polygon opacity="0.78" fill="#66B5DD" enable-background="new    " points="237.676,385.827 232.938,412.595 195.84,416.209 "/>
<polygon opacity="0.83" fill="#5FABDE" enable-background="new    " points="267.073,388.007 237.676,385.827 232.074,413.014 
	266.938,388.681 "/>
<polygon opacity="0.72" fill="#5CAEDD" enable-background="new    " points="232.524,412.281 187.539,454.3 195.84,416.209 "/>
<polygon opacity="0.53" fill="#60AEDD" enable-background="new    " points="232.463,412.269 260.714,420.952 232.604,454.535 "/>
<polygon opacity="0.13" fill="#4F79BC" enable-background="new    " points="310.902,91.089 278.883,100.75 296.919,78.78 "/>
<polygon opacity="0.13" fill="#4270B6" enable-background="new    " points="276.077,55.985 278.883,100.75 296.919,78.78 "/>
<polygon opacity="0.13" fill="#4370B6" enable-background="new    " points="276.077,55.985 227.92,89.607 278.883,100.75 "/>
<polygon opacity="0.13" fill="#3B68B1" enable-background="new    " points="276.077,55.985 227.824,70.531 228.332,89.305 "/>
<path opacity="0.08" fill="#4069B1" enable-background="new    " d="M276.109,55.962c-0.4-0.096-35.703-15.208-35.703-15.208
	l-12.583,29.777L276.109,55.962z"/>
<polygon opacity="0.1" fill="#4266AF" enable-background="new    " points="240.407,40.754 265.783,34.428 276.05,55.961 "/>
<polygon opacity="0.13" fill="#3F66AF" enable-background="new    " points="337.325,28.666 308.626,15.189 300.005,46.766 "/>
<polygon opacity="0.13" fill="#3F6EB5" enable-background="new    " points="308.635,15.214 276.005,55.873 300.104,46.785 "/>
<polygon opacity="0.1" fill="#3E6BB3" enable-background="new    " points="308.692,15.156 265.684,34.294 275.978,55.851 "/>
<path opacity="0.08" fill="#4164AD" enable-background="new    " d="M308.718,15.14l-22.135-9.89
	c-3.151,0.126-6.216,0.338-9.173,0.697l-11.627,28.481L308.718,15.14z"/>
<polygon opacity="0.06" fill="#3A5FAB" enable-background="new    " points="279.068,1.885 240.407,40.754 265.783,34.428 "/>
<polygon opacity="0.09" fill="#3A64AE" enable-background="new    " points="240.407,40.754 227.824,70.531 196.702,68.582 "/>
<polygon opacity="0.07" fill="#4670B6" enable-background="new    " points="227.904,70.552 192.18,103.576 196.702,68.582 "/>
<polygon opacity="0.13" fill="#4974B8" enable-background="new    " points="228.332,89.305 192.275,103.48 227.824,70.531 "/>
<polygon opacity="0.28" fill="#4372B7" enable-background="new    " points="310.902,91.089 278.883,100.75 301.118,122.136 "/>
<polygon opacity="0.13" fill="#3E6EB5" enable-background="new    " points="278.883,100.75 238.191,121.989 227.92,89.607 "/>
<polygon opacity="0.21" fill="#4170B6" enable-background="new    " points="238.361,121.989 195.58,167.884 227.92,89.607 "/>
<polygon opacity="0.33" fill="#3B79BC" enable-background="new    " points="98.982,220.993 111.35,255.074 138.757,223.475 "/>
<path opacity="0.53" fill="#3C8DCC" enable-background="new    " d="M131.962,337.438l19.052-9.056l-13.857,0.134
	C135.06,331.692,133.333,334.716,131.962,337.438z"/>
<path opacity="0.53" fill="#438DCB" enable-background="new    " d="M142.17,321.644c-1.889,2.344-3.537,4.645-5.012,6.873
	l13.857-0.133l-3.312-12.316C145.756,317.874,143.901,319.729,142.17,321.644z"/>
<path opacity="0.53" fill="#4690CD" enable-background="new    " d="M147.703,316.065l3.312,12.317l44.286-33.63l-13.682-1.354
	C169.042,299.776,157.013,307.426,147.703,316.065z"/>
<g opacity="0.53">
	<path fill="#4388C7" d="M194.477,269.967l-0.163-6.222l-16.604,7.898C183.088,271.134,188.602,270.537,194.477,269.967z"/>
	<path fill="#4388C7" d="M181.608,293.401l13.692,1.353l-0.177-7.721C190.426,288.991,185.999,291.188,181.608,293.401z"/>
</g>
<g opacity="0.53">
	<path fill="#3B82C4" d="M228.592,266.696l-34.279-2.951l0.18,6.222C206.099,268.839,216.86,267.864,228.592,266.696z"/>
	<path fill="#3B82C4" d="M195.107,287.033l0.193,7.721l30.519-19.043C215.844,278.877,205.182,282.702,195.107,287.033z"/>
</g>
<path opacity="0.53" fill="#3F86C7" enable-background="new    " d="M225.803,275.728l-30.502,19.026l31.317,2.269l10.325-24.631
	C233.2,273.46,229.696,274.491,225.803,275.728z"/>
<path opacity="0.53" fill="#5193CE" enable-background="new    " d="M236.976,272.374l-10.369,24.596l48.41-15.807l-30.803-10.814
	C241.546,271.06,239.76,271.575,236.976,272.374z"/>
<g opacity="0.53">
	<path fill="#5493CE" d="M267.034,262.922l-1.413-3.188l-16.254,4.93C255.977,263.999,261.604,263.472,267.034,262.922z"/>
	<path fill="#5493CE" d="M244.23,270.349l30.786,10.814l-7.129-16.43C261.155,266.17,252.845,268.056,244.23,270.349z"/>
</g>
<path opacity="0.53" fill="#4F8CCA" enable-background="new    " d="M265.638,259.74l1.396,3.19
	c13.662-1.39,22.772-2.226,22.772-2.226s-8.609,1.185-21.927,4.021l7.137,16.438l33.945-40.508L265.638,259.74z"/>
<path opacity="0.53" fill="#4984C5" enable-background="new    " d="M249.343,264.67l16.269-4.935l13.285-31.824l-38.24,37.754
	C243.825,265.349,246.341,264.97,249.343,264.67z"/>
<path opacity="0.46" fill="#4987C6" enable-background="new    " d="M240.823,265.647l38.046-37.717l-45.968,1.181l5.847,36.744
	C239.443,265.786,240.133,265.717,240.823,265.647z"/>
<path opacity="0.46" fill="#4A89C8" enable-background="new    " d="M238.751,265.854l-5.783-36.702l-38.654,34.591l35.808,2.97
	C233.037,266.426,235.919,266.14,238.751,265.854z"/>
<path opacity="0.53" fill="#4485C5" enable-background="new    " d="M142.907,275.008c6.607-0.582,19.097-1.771,34.539-3.241
	c0,0,16.751-7.945,16.847-8.011c-3.577-0.655-48.318-13.353-48.318-13.353l-3.09,24.57
	C143.06,274.949,142.731,275.031,142.907,275.008z"/>
<path opacity="0.53" fill="#3F85C6" enable-background="new    " d="M142.851,275.019l3.119-24.609l-20.424,26.221
	C130.889,276.192,136.579,275.577,142.851,275.019z"/>
<path opacity="0.53" fill="#3B79BC" enable-background="new    " d="M125.545,276.629l20.424-26.239
	c0.899-0.019-34.62,4.672-34.62,4.672l0.819,22.194C116.352,277.187,120.866,276.946,125.545,276.629z"/>
<path opacity="0.53" fill="#3475AF" enable-background="new    " d="M66.742,272.593l22.723,3.859
	c6.583,0.615,14.194,0.949,22.842,0.802l-0.957-22.18l-50.089,15.892C62.745,271.465,64.573,272.021,66.742,272.593z"/>
<path opacity="0.14" fill="#3C6DB4" enable-background="new    " d="M59.871,270.483l39.112-49.49l-35.881-4.918l-5.414,53.574
	C58.242,269.879,58.976,270.162,59.871,270.483z"/>
<path opacity="0.3" fill="#3F74B9" enable-background="new    " d="M63.411,271.649l47.939-16.575l-12.368-34.081l-39.112,49.49
	C60.847,270.836,62.025,271.229,63.411,271.649z"/>
<polygon opacity="0.53" fill="#376EB5" enable-background="new    " points="156.643,189.91 149.956,214.892 139.639,214.892 
	138.781,223.501 194.199,189.851 "/>
<path opacity="0.73" fill="#4BA1D8" enable-background="new    " d="M118.853,385.962c-0.189,1.027-0.363,2.012-0.5,2.891
	c-0.979,4.94-0.87,14.487,2.569,24.807l30.989-23.901L118.853,385.962z"/>
<path opacity="0.44" fill="#55AADA" enable-background="new    " d="M151.907,389.765l-30.88,24.194
	c0.67,1.974,1.467,3.97,2.397,5.974l19.14-3.61L151.907,389.765z"/>
<path opacity="0.51" fill="#47A7DD" enable-background="new    " d="M123.425,419.933c1.096,2.356,2.368,4.717,3.874,7.03
	l15.267-10.642L123.425,419.933z"/>
<path opacity="0.32" fill="#51AADA" enable-background="new    " d="M127.295,426.96c3.528,5.425,8.268,10.608,14.521,15.003
	l0.735-25.642L127.295,426.96z"/>
<path opacity="0.6" fill="#46A2DA" enable-background="new    " d="M142.552,416.321l-0.725,25.648
	c2.146,1.507,4.472,2.919,6.99,4.218l47.258-30.11L142.552,416.321z"/>
<path opacity="0.68" fill="#4399D4" enable-background="new    " d="M151.961,350.757l-31.264,26.198
	c-0.724,3.302-1.37,6.417-1.857,9.09l33.072,3.712L151.961,350.757z"/>
<path opacity="0.59" fill="#4598D3" enable-background="new    " d="M127.157,349.778c-1.324,5.398-4.249,17.093-6.46,27.177
	l31.256-26.175L127.157,349.778z"/>
<path opacity="0.16" fill="#5C93CD" enable-background="new    " d="M369.655,260.694l15.486-28.644
	c-1.527-1.53-3.269-3.005-5.223-4.405l-12.444-2.829L369.655,260.694z"/>
<path opacity="0.53" fill="#5592CD" enable-background="new    " d="M308.954,240.642l-9.578,31.418
	c1.724-1.379,2.883-2.064,2.883-2.064s5.568-3.057,15.703-5.834l20.772-10.848L308.954,240.642z"/>
<path opacity="0.53" fill="#4C8BC9" enable-background="new    " d="M296.173,274.927c1.208-1.195,2.325-2.169,3.271-2.922
	l9.519-31.355l-33.834,40.356L296.173,274.927z"/>
<polygon opacity="0.47" fill="#3664AE" enable-background="new    " points="163.121,165.84 195.573,167.993 182.195,126.812 
	169.316,142.676 "/>
<polygon opacity="0.55" fill="#517DBE" enable-background="new    " points="296.982,203.879 289.021,192.986 278.875,227.97 
	297.492,216.643 "/>
<linearGradient id="SVGID_2_" gradientUnits="userSpaceOnUse" x1="439.0088" y1="35.7144" x2="460.1376" y2="37.2934" gradientTransform="matrix(1 0 0 -1 -156 212.4434)">
	<stop  offset="0.0307" style="stop-color:#4D85C5;stop-opacity:0.8"/>
	<stop  offset="1" style="stop-color:#4D85C5;stop-opacity:0"/>
</linearGradient>
<polygon fill="url(#SVGID_2_)" points="301.383,183.755 298.073,144.059 289.021,192.986 299.316,207.053 "/>
<linearGradient id="SVGID_3_" gradientUnits="userSpaceOnUse" x1="454.1172" y1="44.2134" x2="463.6143" y2="44.2134" gradientTransform="matrix(1 0 0 -1 -156 212.4434)">
	<stop  offset="0.0307" style="stop-color:#4D85C5;stop-opacity:0.8"/>
	<stop  offset="1" style="stop-color:#4D85C5;stop-opacity:0"/>
</linearGradient>
<polygon fill="url(#SVGID_3_)" points="307.614,156.697 298.117,144.413 301.736,192.047 "/>
<polygon opacity="0.25" fill="#5483C3" enable-background="new    " points="310.096,148.191 298.004,144.197 308.146,157.454 "/>
<polygon opacity="0.35" fill="#5180C1" enable-background="new    " points="312.727,134.385 298.052,144.279 310.402,148.396 "/>
<polygon opacity="0.49" fill="#4B78BB" enable-background="new    " points="314.172,122.858 301.123,122.178 297.985,144.346 
	313.158,134.079 "/>
<path opacity="0.22" fill="#5179BC" enable-background="new    " d="M325.443,71.794l-28.52,7.027l13.983,12.309l12.154-9.402
	C323.674,78.565,324.459,75.153,325.443,71.794z"/>
<polygon opacity="0.83" fill="#5A90CB" enable-background="new    " points="338.644,221.155 336.683,216.76 297.492,216.643 "/>
<path opacity="0.87" fill="#5A90CB" enable-background="new    " d="M338.644,221.155c0,0,3.898-4.226,3.856-4.268
	c-0.425-0.127-5.817-0.127-5.817-0.127L338.644,221.155z"/>
<path opacity="0.38" fill="#5A90CB" enable-background="new    " d="M369.766,260.617c-0.526,0.021,26.052-8.093,26.052-8.093
	s0.896,4.447,0.697,8.832c-0.079,1.729-1.525,20.937-1.525,20.937S392.489,265.417,369.766,260.617z"/>
<path opacity="0.05" fill="#3D5FAB" enable-background="new    " d="M49.994,266.423l-27.822-27.68l-1.815,4.182
	C22.046,245.312,31.776,258.212,49.994,266.423z"/>
<polygon opacity="0.39" fill="#3B6AB2" enable-background="new    " points="320.244,95.206 310.908,91.129 301.123,122.178 
	315.815,113.804 "/>
<polygon opacity="0.55" fill="#4D76BA" enable-background="new    " points="320.244,95.206 323.05,81.752 310.908,91.129 
	320.247,95.207 "/>
<polygon opacity="0.85" fill="#517DBE" enable-background="new    " points="314.172,122.858 315.815,113.806 301.123,122.178 "/>
<linearGradient id="SVGID_4_" gradientUnits="userSpaceOnUse" x1="544.7979" y1="200.6436" x2="506.7326" y2="195.6515" gradientTransform="matrix(1 0 0 -1 -156 212.4434)">
	<stop  offset="0.0307" style="stop-color:#2D6A91;stop-opacity:0.8"/>
	<stop  offset="1" style="stop-color:#2D6A91;stop-opacity:0"/>
</linearGradient>
<polygon fill="url(#SVGID_4_)" points="338.129,5.122 362.03,28.632 405.275,5.122 "/>
<linearGradient id="SVGID_5_" gradientUnits="userSpaceOnUse" x1="609.0933" y1="204.1543" x2="571.028" y2="199.1623" gradientTransform="matrix(1 0 0 -1 -156 212.4434)">
	<stop  offset="0.0307" style="stop-color:#487797;stop-opacity:0.41"/>
	<stop  offset="1" style="stop-color:#2D6A91;stop-opacity:0"/>
</linearGradient>
<polygon fill="url(#SVGID_5_)" points="439.611,19.812 470.031,5.122 402.885,5.122 414.424,19.812 "/>
<g>
	<g>
		<g>
			<g>
				<g>
					<g>
						<path fill="#184367" d="M920.069,321.569c-5.65,2.498-14.768,4.762-26.064,4.762c-25.377,0-40.76-15.954-40.76-41.612
							c0-18.95,7.613-36.972,21.506-48.465c10.273-8.8,23.135-13.557,37.863-13.557c11.182,0,19.107,2.813,21.785,4.912
							l-4.047,10.015c-3.725-2.257-10.857-4.202-19.816-4.202c-10.465,0-21.01,4.024-28.781,11.359
							c-9.416,8.778-15.361,22.956-15.361,38.163c0,18.035,8.203,32.81,30.582,32.81c7.596,0,15.957-1.491,21.488-4.305
							L920.069,321.569z"/>
						<path fill="#184367" d="M1020.016,263.828c0,17.44-6.242,36.69-18.199,48.603c-8.941,8.84-20.598,14.018-34.473,14.018
							c-25.93,0-38.184-19.49-38.184-40.836c0-17.784,7.037-37.25,19.256-49.358c8.504-8.351,21.027-13.562,33.717-13.562
							C1009.092,222.697,1020.016,242.397,1020.016,263.828z M957.51,243.272c-9.691,9.676-15.359,27.276-15.359,41.287
							c0,16.416,7.316,31.463,27.02,31.463c8.486,0,16.691-3.688,22.938-9.974c9.414-9.536,14.904-27.592,14.904-41.632
							c0-14.289-4.596-31.279-26.523-31.279C971.549,233.142,963.616,237.003,957.51,243.272z"/>
						<path fill="#184367" d="M1107.553,324.844l7.18-54.3c1.326-9.536,3.566-24.277,5.51-33.997h-0.592
							c-4.643,10.151-10.152,22.043-15.684,32.372l-29.809,55.329h-9.555l-7.455-54.14c-1.506-11.637-2.539-23.25-3.133-33.562
							h-0.305c-2.236,9.263-5.389,24.461-7.764,33.997l-13.703,54.3h-11.635l26.064-100.527h15.842l7.908,57.704
							c1.029,8.508,2.238,17.604,2.379,25.058h0.453c3.113-7.453,7.479-16.413,11.775-24.763l31.18-58h16.1l-12.832,100.53
							L1107.553,324.844L1107.553,324.844z"/>
						<path fill="#184367" d="M1220.903,324.844l7.178-54.3c1.326-9.536,3.59-24.277,5.49-33.997h-0.596
							c-4.6,10.151-10.109,22.043-15.639,32.372l-29.836,55.329h-9.555l-7.453-54.14c-1.486-11.637-2.52-23.25-3.137-33.562h-0.299
							c-2.238,9.263-5.371,24.461-7.742,33.997l-13.727,54.3h-11.637l26.092-100.527h15.838l7.891,57.704
							c1.025,8.508,2.232,17.604,2.359,25.058h0.451c3.152-7.453,7.477-16.413,11.797-24.763l31.174-58h16.102l-12.826,100.53
							L1220.903,324.844L1220.903,324.844z"/>
						<path fill="#184367" d="M1307.868,277.562h-36.549l-6.861,36.694h41.156l-2.088,10.587h-53.541l19.088-100.527h51.324
							l-2.062,10.604h-38.812l-6.105,32.192h36.533L1307.868,277.562z"/>
						<path fill="#184367" d="M1336.038,225.806c6.125-1.328,14.494-2.24,21.947-2.24c9.994,0,18.627,2.402,24,7.32
							c4.627,4.04,7.438,9.869,7.438,16.727c0,14.548-11.164,25.477-23.848,29.039l-0.143,0.318
							c7.018,2.377,10.43,9.832,11.18,20.26c1.057,14.014,1.789,23.547,3.117,27.614h-12.807
							c-0.578-2.084-1.645-12.672-2.379-24.323c-0.729-13.719-5.805-19.525-15.814-19.525h-11.045l-8.205,43.85h-12.367
							L1336.038,225.806z M1339.606,271.455h11.043c15.693,0,25.805-10.286,25.805-22.356c0-10.74-8.043-15.502-19.385-15.502
							c-4.918,0-8.189,0.418-10.436,1.032L1339.606,271.455z"/>
						<path fill="#184367" d="M1462.368,321.569c-5.67,2.498-14.77,4.762-26.105,4.762c-25.354,0-40.721-15.954-40.721-41.612
							c0-18.95,7.596-36.972,21.473-48.465c10.303-8.8,23.131-13.557,37.898-13.557c11.182,0,19.113,2.813,21.768,4.912
							l-4.025,10.015c-3.707-2.257-10.881-4.202-19.803-4.202c-10.469,0-21.051,4.024-28.824,11.359
							c-9.396,8.778-15.344,22.956-15.344,38.163c0,18.035,8.209,32.81,30.568,32.81c7.613,0,15.938-1.491,21.492-4.305
							L1462.368,321.569z"/>
						<path fill="#184367" d="M1530.524,277.562h-36.516l-6.881,36.694h41.152l-2.084,10.587h-53.543l19.094-100.527h51.299
							l-2.082,10.604h-38.754l-6.145,32.192h36.553L1530.524,277.562z"/>
					</g>
				</g>
				<g>
					<g>
						<g>
							<path fill="#184367" d="M779.499,222.42c0,0-28.782,0-32.545,0c-29.542,0-39.414,18.529-41.754,24.261
								c-8.462,24.027,11.401,35.406,11.401,35.406s10.663,5.645,17.5,9.568c6.738,3.904,6.642,13.535,1.352,18.156
								c-17.644,12.982-24.443-5.927-25.674-9.217c-1.188-3.234-4.695-1.268-4.695-1.268s-4.646,2.139-8.861,4.876
								c-4.658,2.999-1.861,6.562-1.861,6.562s15.165,20.715,39.486,15.125c8.188-1.885,41.513-9.533,34.59-41.748
								c-3.626-16.412-25.53-22.537-29.653-24.584c-5.95-2.611-8.405-7.511-7.376-12.701c1.43-7.197,6.145-10.312,14.846-10.312
								c5.058,0,31.146,0,31.146,0L779.499,222.42z"/>
						</g>
						<path fill="#184367" d="M642.107,175.755h-6.402c-1.19,0-3.826,0-7.415,0c-5.289,0-18.413,0-26.841,0
							c-44.84,0-52.688,38.198-52.688,38.198l-16.53,104.31c0,0-0.121,0.371-0.158,0.992l-0.834,4.812h5.334l0.315,0.043
							c2.78,0,26.031,0,31.422,0c6.696,0,7.607-5.85,7.607-5.85l8.268-50.863c0,0,26.966,0,29.835,0
							c4.403,0,4.938-4.287,4.938-4.287l2.654-16.846H587.5l4.975-31.621c0,0,2.198-19.088,14.254-19.088c3.787,0,22.2,0,26.684,0
							c5.63,0,5.982-4.956,5.982-4.956l1.969-10.608c0,0,0.059-0.195,0.059-0.513L642.107,175.755z"/>
						<path fill="#184367" d="M858.516,222.438h-4.578l-0.213-0.018c-2.777,0-83.519,0-87.346,0c-3.806,0-4.279,3.828-4.279,3.828
							l-1.052,7.194c0,0-0.614,3.113,3.81,3.113c2.475,0,17.084,0,22.061,0c5.014,0,3.982,4.317,3.982,4.317l-12.271,77.435
							c0,0-0.02,0.236-0.08,0.469l-0.871,5.23h4.814l0.102,0.043c5.195,0,19.445,0,24.879,0c5.451,0,6.184-5.189,6.184-5.189
							l12.275-77.986c0,0,0.312-4.318,6.221-4.318c5.791,0,14.072,0,18.971,0c4.9,0,5.889-4.662,5.889-4.662l0.834-5.333
							c0,0,0.074-0.38,0.074-0.831L858.516,222.438z"/>
						<g>
							<g>
								<path fill="#184367" d="M692.081,317.728c-0.08-0.68-14.43-79.789-14.629-80.578c-0.442-1.605-4.186-16.5-17.965-16.5
									c-11.773,0-15.679,4.407-19.105,9.221c-1.248,1.741-4.086,6.94-4.086,6.94l-39.487,81.352l-0.174,0.318
									c-0.045,0.062-0.045,0.062-0.062,0.117l-2.601,5.02h6.329h0.118c1.939,0,4.123,0,6.56,0c6.205,0,7.812-5.311,7.812-5.311
									l4.48-9.641c0,0,1.388-3.232,4.839-3.232c2.514,0,22.319,0,26.347,0c4.023,0,4.24,2.775,4.24,2.775l1.482,10.23
									c0,0,0.6,5.408,5.533,5.408c4.952,0,21.211,0,24.781,0C691.802,323.851,692.201,318.938,692.081,317.728z M648.111,290.271
									c-3.213,0-20.101,0.041-20.101,0.041s14.826-30.984,15.423-32.275c0.556-1.566,3.667-5.271,4.721,0.238
									c1.029,5.554,3.544,26.246,3.544,26.246S652.674,290.271,648.111,290.271z"/>
							</g>
						</g>
					</g>
				</g>
			</g>
		</g>
	</g>
</g>
<polygon opacity="0.36" fill="#49A0D8" enable-background="new    " points="232.938,412.595 188.653,453.222 232.653,453.555 "/>
</svg>
